<svg xmlns="http://www.w3.org/2000/svg" version="1.1" xmlns:xlink="http://www.w3.org/1999/xlink" xmlns:svgjs="http://svgjs.dev/svgjs" width="1500" height="246" viewBox="0 0 1500 246"><g transform="matrix(1,0,0,1,-0.9090909090911055,-0.5606069115164303)"><svg viewBox="0 0 396 65" data-background-color="#ffffff" preserveAspectRatio="xMidYMid meet" height="246" width="1500" xmlns="http://www.w3.org/2000/svg" xmlns:xlink="http://www.w3.org/1999/xlink"><g id="tight-bounds" transform="matrix(1,0,0,1,0.24000000000003752,0.1481278424738548)"><svg viewBox="0 0 395.5199999999999 64.70374431505228" height="64.70374431505228" width="395.5199999999999"><g><svg viewBox="0 0 510.35694062020843 83.49010162647221" height="64.70374431505228" width="395.5199999999999"><g><rect width="7.491764702945416" height="83.49010162647221" x="87.73322643311272" y="0" fill="#919591" opacity="1" stroke-width="0" stroke="transparent" fill-opacity="1" class="rect-yte-0" data-fill-palette-color="primary" rx="1%" id="yte-0" data-palette-color="#919591"></rect></g><g transform="matrix(1,0,0,1,114.83694062020844,0.20768681996634086)"><svg viewBox="0 0 395.52 83.07472798653953" height="83.07472798653953" width="395.52"><g id="textblocktransform"><svg viewBox="0 0 395.52 83.07472798653953" height="83.07472798653953" width="395.52" id="textblock"><g><svg viewBox="0 0 395.52 83.07472798653953" height="83.07472798653953" width="395.52"><g transform="matrix(1,0,0,1,0,0)"><svg width="395.52" viewBox="1.3 -37.1 178.29 37.45" height="83.07472798653953" data-palette-color="#919591"><path d="M28.35-31.85L25.9-26.9Q24-28.1 22.15-28.8 20.3-29.5 18.65-29.8 17-30.1 15.65-30.1L15.65-30.1Q13.05-30.1 11.5-29.1 9.95-28.1 9.95-26.2L9.95-26.2Q9.95-24.5 10.98-23.43 12-22.35 13.68-21.68 15.35-21 17.38-20.4 19.4-19.8 21.4-19.07 23.4-18.35 25.1-17.2 26.8-16.05 27.8-14.28 28.8-12.5 28.8-9.8L28.8-9.8Q28.8-6.7 27.1-4.42 25.4-2.15 22.43-0.9 19.45 0.35 15.6 0.35L15.6 0.35Q12.85 0.35 10.25-0.38 7.65-1.1 5.38-2.35 3.1-3.6 1.3-5.25L1.3-5.25 3.85-10.1Q5.65-8.45 7.68-7.3 9.7-6.15 11.78-5.55 13.85-4.95 15.7-4.95L15.7-4.95Q18.8-4.95 20.53-6.15 22.25-7.35 22.25-9.5L22.25-9.5Q22.25-11.25 21.23-12.33 20.2-13.4 18.53-14.1 16.85-14.8 14.83-15.35 12.8-15.9 10.78-16.63 8.75-17.35 7.08-18.45 5.4-19.55 4.38-21.3 3.35-23.05 3.35-25.75L3.35-25.75Q3.35-28.7 4.95-30.88 6.55-33.05 9.43-34.25 12.3-35.45 16.1-35.45L16.1-35.45Q19.5-35.45 22.7-34.45 25.9-33.45 28.35-31.85L28.35-31.85ZM40.25-26.55L40.25-11.55Q40.25-8.45 41.9-6.68 43.55-4.9 46.45-4.9L46.45-4.9Q49.9-5 51.82-7.45 53.75-9.9 53.75-13.5L53.75-13.5 55.3-13.5Q55.3-8.6 53.95-5.6 52.6-2.6 50.12-1.23 47.65 0.15 44.25 0.2L44.25 0.2Q41.2 0.2 39.02-1.05 36.85-2.3 35.67-4.6 34.5-6.9 34.5-10.05L34.5-10.05 34.5-26.55 40.25-26.55ZM53.75 0L53.75-26.55 59.5-26.55 59.5 0 53.75 0ZM83.3-26.75L83.3-26.75Q87.09-26.75 89.95-25.05 92.8-23.35 94.4-20.3 96-17.25 96-13.2L96-13.2Q96-9.25 94.42-6.23 92.84-3.2 90.02-1.5 87.2 0.2 83.4 0.2L83.4 0.2Q79.75 0.2 77.17-1.4 74.59-3 73.25-6.03 71.9-9.05 71.9-13.2L71.9-13.2Q71.9-17.5 73.25-20.53 74.59-23.55 77.17-25.15 79.75-26.75 83.3-26.75ZM82.09-22.2L82.09-22.2Q79.75-22.2 77.9-21.05 76.05-19.9 75.02-17.93 74-15.95 74-13.35L74-13.35Q74-10.75 75.02-8.72 76.05-6.7 77.9-5.58 79.75-4.45 82.09-4.45L82.09-4.45Q84.5-4.45 86.32-5.6 88.15-6.75 89.17-8.75 90.2-10.75 90.2-13.35L90.2-13.35Q90.2-15.9 89.17-17.9 88.15-19.9 86.32-21.05 84.5-22.2 82.09-22.2ZM68.25 0L68.25-37.1 74-37.1 74 0 68.25 0ZM121.69 0L121.69-15Q121.69-18.1 119.99-19.88 118.29-21.65 115.29-21.65L115.29-21.65Q111.74-21.6 109.72-19.15 107.69-16.7 107.69-13.05L107.69-13.05 106.09-13.05Q106.09-18 107.49-21 108.89-24 111.47-25.38 114.04-26.75 117.54-26.75L117.54-26.75Q120.64-26.75 122.87-25.5 125.09-24.25 126.27-21.98 127.44-19.7 127.44-16.5L127.44-16.5 127.44 0 121.69 0ZM101.99 0L101.99-26.55 107.74-26.55 107.74 0 101.99 0ZM137.29-15.2L153.54-15.2Q153.44-17.45 152.52-19.03 151.59-20.6 149.94-21.48 148.29-22.35 146.14-22.35L146.14-22.35Q143.74-22.35 141.97-21.25 140.19-20.15 139.19-18.18 138.19-16.2 138.19-13.55L138.19-13.55Q138.19-10.7 139.27-8.6 140.34-6.5 142.27-5.35 144.19-4.2 146.69-4.2L146.69-4.2Q151.14-4.2 154.19-7.35L154.19-7.35 157.24-4.3Q155.29-2.15 152.49-0.98 149.69 0.2 146.24 0.2L146.24 0.2Q142.14 0.2 139.09-1.5 136.04-3.2 134.34-6.23 132.64-9.25 132.64-13.25L132.64-13.25Q132.64-17.25 134.34-20.28 136.04-23.3 139.09-25 142.14-26.7 146.09-26.75L146.09-26.75Q150.79-26.75 153.64-24.83 156.49-22.9 157.69-19.4 158.89-15.9 158.54-11.1L158.54-11.1 137.29-11.1 137.29-15.2ZM171.29-32.85L171.29-8.4Q171.29-6.25 172.04-5.48 172.79-4.7 174.14-4.7L174.14-4.7Q175.04-4.7 176.01-5 176.99-5.3 178.14-5.9L178.14-5.9 179.59-1.75Q178.04-0.8 176.39-0.28 174.74 0.25 173.04 0.25L173.04 0.25Q171.04 0.25 169.34-0.53 167.64-1.3 166.61-3 165.59-4.7 165.59-7.4L165.59-7.4 165.59-32.85 171.29-32.85ZM161.84-21.5L161.84-25.6 179.14-25.6 179.14-21.5 161.84-21.5Z" opacity="1" transform="matrix(1,0,0,1,0,0)" fill="#919591" class="wordmark-text-0" data-fill-palette-color="primary" id="text-0"></path></svg></g></svg></g></svg></g></svg></g><g transform="matrix(1,0,0,1,0,0.20768681996634086)"><svg viewBox="0 0 68.12127694896242 83.07472798653953" height="83.07472798653953" width="68.12127694896242"><g><svg version="1.1" xmlns="http://www.w3.org/2000/svg" xmlns:xlink="http://www.w3.org/1999/xlink" x="0" y="0" viewBox="0 0 82 100" enable-background="new 0 0 82 100" xml:space="preserve" height="83.07472798653953" width="68.12127694896242" class="icon-icon-0" data-fill-palette-color="accent" id="icon-0"><polygon points="82,30 82,0 52,0 52,12 44,12 44,0 38,0 38,47 30,47 30,35 0,35 0,65 30,65 30,53 38,53 38,100 44,100 44,88 52,88 	52,100 82,100 82,70 52,70 52,82 44,82 44,18 52,18 52,30 " fill="#636365" data-fill-palette-color="accent"></polygon></svg></g></svg></g></svg></g><defs></defs></svg><rect width="395.5199999999999" height="64.70374431505228" fill="none" stroke="none" visibility="hidden"></rect></g></svg></g></svg>